<?xml version="1.0" encoding="utf-8" standalone="no"?>
<!DOCTYPE svg PUBLIC "-//W3C//DTD SVG 1.1//EN"
  "http://www.w3.org/Graphics/SVG/1.1/DTD/svg11.dtd">
<svg xmlns:xlink="http://www.w3.org/1999/xlink" width="360pt" height="360pt" viewBox="0 0 360 360" xmlns="http://www.w3.org/2000/svg" version="1.1">
 <metadata>
  <rdf:RDF xmlns:dc="http://purl.org/dc/elements/1.1/" xmlns:cc="http://creativecommons.org/ns#" xmlns:rdf="http://www.w3.org/1999/02/22-rdf-syntax-ns#">
   <cc:Work>
    <dc:type rdf:resource="http://purl.org/dc/dcmitype/StillImage"/>
    <dc:date>2024-07-31T00:13:53.148142</dc:date>
    <dc:format>image/svg+xml</dc:format>
    <dc:creator>
     <cc:Agent>
      <dc:title>Matplotlib v3.9.1, https://matplotlib.org/</dc:title>
     </cc:Agent>
    </dc:creator>
   </cc:Work>
  </rdf:RDF>
 </metadata>
 <defs>
  <style type="text/css">*{stroke-linejoin: round; stroke-linecap: butt}</style>
 </defs>
 <g id="figure_1">
  <g id="patch_1">
   <path d="M 0 360 
L 360 360 
L 360 0 
L 0 0 
z
" style="fill: #ffffff"/>
  </g>
  <g id="axes_1">
   <g id="patch_2">
    <path d="M 69.712812 157.324339 
L 205.136406 157.324339 
L 205.136406 9.72 
L 69.712812 9.72 
z
" style="fill: #ffffff"/>
   </g>
   <g id="matplotlib.axis_1">
    <g id="xtick_1">
     <g id="line2d_1">
      <path d="M 75.86843 157.324339 
L 75.86843 9.72 
" clip-path="url(#pe525e09464)" style="fill: none; stroke: #cccccc; stroke-opacity: 0.2; stroke-width: 0.8; stroke-linecap: square"/>
     </g>
     <g id="line2d_2"/>
    </g>
    <g id="xtick_2">
     <g id="line2d_3">
      <path d="M 115.056311 157.324339 
L 115.056311 9.72 
" clip-path="url(#pe525e09464)" style="fill: none; stroke: #cccccc; stroke-opacity: 0.2; stroke-width: 0.8; stroke-linecap: square"/>
     </g>
     <g id="line2d_4"/>
    </g>
    <g id="xtick_3">
     <g id="line2d_5">
      <path d="M 154.244192 157.324339 
L 154.244192 9.72 
" clip-path="url(#pe525e09464)" style="fill: none; stroke: #cccccc; stroke-opacity: 0.2; stroke-width: 0.8; stroke-linecap: square"/>
     </g>
     <g id="line2d_6"/>
    </g>
    <g id="xtick_4">
     <g id="line2d_7">
      <path d="M 193.432072 157.324339 
L 193.432072 9.72 
" clip-path="url(#pe525e09464)" style="fill: none; stroke: #cccccc; stroke-opacity: 0.2; stroke-width: 0.8; stroke-linecap: square"/>
     </g>
     <g id="line2d_8"/>
    </g>
   </g>
   <g id="matplotlib.axis_2">
    <g id="ytick_1">
     <g id="line2d_9">
      <path d="M 69.712812 150.615051 
L 205.136406 150.615051 
" clip-path="url(#pe525e09464)" style="fill: none; stroke: #cccccc; stroke-opacity: 0.2; stroke-width: 0.8; stroke-linecap: square"/>
     </g>
     <g id="line2d_10"/>
     <g id="text_1">
      <!-- −1.0 -->
      <g transform="translate(41.93 154.41427) scale(0.1 -0.1)">
       <defs>
        <path id="DejaVuSans-2212" d="M 678 2272 
L 4684 2272 
L 4684 1741 
L 678 1741 
L 678 2272 
z
" transform="scale(0.015625)"/>
        <path id="DejaVuSans-31" d="M 794 531 
L 1825 531 
L 1825 4091 
L 703 3866 
L 703 4441 
L 1819 4666 
L 2450 4666 
L 2450 531 
L 3481 531 
L 3481 0 
L 794 0 
L 794 531 
z
" transform="scale(0.015625)"/>
        <path id="DejaVuSans-2e" d="M 684 794 
L 1344 794 
L 1344 0 
L 684 0 
L 684 794 
z
" transform="scale(0.015625)"/>
        <path id="DejaVuSans-30" d="M 2034 4250 
Q 1547 4250 1301 3770 
Q 1056 3291 1056 2328 
Q 1056 1369 1301 889 
Q 1547 409 2034 409 
Q 2525 409 2770 889 
Q 3016 1369 3016 2328 
Q 3016 3291 2770 3770 
Q 2525 4250 2034 4250 
z
M 2034 4750 
Q 2819 4750 3233 4129 
Q 3647 3509 3647 2328 
Q 3647 1150 3233 529 
Q 2819 -91 2034 -91 
Q 1250 -91 836 529 
Q 422 1150 422 2328 
Q 422 3509 836 4129 
Q 1250 4750 2034 4750 
z
" transform="scale(0.015625)"/>
       </defs>
       <use xlink:href="#DejaVuSans-2212"/>
       <use xlink:href="#DejaVuSans-31" x="83.789062"/>
       <use xlink:href="#DejaVuSans-2e" x="147.412109"/>
       <use xlink:href="#DejaVuSans-30" x="179.199219"/>
      </g>
     </g>
    </g>
    <g id="ytick_2">
     <g id="line2d_11">
      <path d="M 69.712812 117.068611 
L 205.136406 117.068611 
" clip-path="url(#pe525e09464)" style="fill: none; stroke: #cccccc; stroke-opacity: 0.2; stroke-width: 0.8; stroke-linecap: square"/>
     </g>
     <g id="line2d_12"/>
     <g id="text_2">
      <!-- −0.5 -->
      <g transform="translate(41.93 120.867829) scale(0.1 -0.1)">
       <defs>
        <path id="DejaVuSans-35" d="M 691 4666 
L 3169 4666 
L 3169 4134 
L 1269 4134 
L 1269 2991 
Q 1406 3038 1543 3061 
Q 1681 3084 1819 3084 
Q 2600 3084 3056 2656 
Q 3513 2228 3513 1497 
Q 3513 744 3044 326 
Q 2575 -91 1722 -91 
Q 1428 -91 1123 -41 
Q 819 9 494 109 
L 494 744 
Q 775 591 1075 516 
Q 1375 441 1709 441 
Q 2250 441 2565 725 
Q 2881 1009 2881 1497 
Q 2881 1984 2565 2268 
Q 2250 2553 1709 2553 
Q 1456 2553 1204 2497 
Q 953 2441 691 2322 
L 691 4666 
z
" transform="scale(0.015625)"/>
       </defs>
       <use xlink:href="#DejaVuSans-2212"/>
       <use xlink:href="#DejaVuSans-30" x="83.789062"/>
       <use xlink:href="#DejaVuSans-2e" x="147.412109"/>
       <use xlink:href="#DejaVuSans-35" x="179.199219"/>
      </g>
     </g>
    </g>
    <g id="ytick_3">
     <g id="line2d_13">
      <path d="M 69.712812 83.52217 
L 205.136406 83.52217 
" clip-path="url(#pe525e09464)" style="fill: none; stroke: #cccccc; stroke-opacity: 0.2; stroke-width: 0.8; stroke-linecap: square"/>
     </g>
     <g id="line2d_14"/>
     <g id="text_3">
      <!-- 0.0 -->
      <g transform="translate(50.309687 87.321388) scale(0.1 -0.1)">
       <use xlink:href="#DejaVuSans-30"/>
       <use xlink:href="#DejaVuSans-2e" x="63.623047"/>
       <use xlink:href="#DejaVuSans-30" x="95.410156"/>
      </g>
     </g>
    </g>
    <g id="ytick_4">
     <g id="line2d_15">
      <path d="M 69.712812 49.975729 
L 205.136406 49.975729 
" clip-path="url(#pe525e09464)" style="fill: none; stroke: #cccccc; stroke-opacity: 0.2; stroke-width: 0.8; stroke-linecap: square"/>
     </g>
     <g id="line2d_16"/>
     <g id="text_4">
      <!-- 0.5 -->
      <g transform="translate(50.309687 53.774948) scale(0.1 -0.1)">
       <use xlink:href="#DejaVuSans-30"/>
       <use xlink:href="#DejaVuSans-2e" x="63.623047"/>
       <use xlink:href="#DejaVuSans-35" x="95.410156"/>
      </g>
     </g>
    </g>
    <g id="ytick_5">
     <g id="line2d_17">
      <path d="M 69.712812 16.429288 
L 205.136406 16.429288 
" clip-path="url(#pe525e09464)" style="fill: none; stroke: #cccccc; stroke-opacity: 0.2; stroke-width: 0.8; stroke-linecap: square"/>
     </g>
     <g id="line2d_18"/>
     <g id="text_5">
      <!-- 1.0 -->
      <g transform="translate(50.309687 20.228507) scale(0.1 -0.1)">
       <use xlink:href="#DejaVuSans-31"/>
       <use xlink:href="#DejaVuSans-2e" x="63.623047"/>
       <use xlink:href="#DejaVuSans-30" x="95.410156"/>
      </g>
     </g>
    </g>
   </g>
   <g id="line2d_19">
    <path d="M 75.86843 83.52217 
L 86.343456 65.800869 
L 92.012293 56.657733 
L 96.695246 49.519965 
L 100.76202 43.711383 
L 104.459088 38.801013 
L 107.909685 34.576028 
L 111.11381 30.991756 
L 114.1947 27.876064 
L 117.029119 25.312823 
L 119.740302 23.145685 
L 122.328249 21.346398 
L 124.916197 19.818174 
L 127.380909 18.62084 
L 129.722385 17.721033 
L 132.063861 17.05607 
L 134.405337 16.628325 
L 136.623578 16.443304 
L 138.841819 16.473158 
L 141.060059 16.717789 
L 143.2783 17.176416 
L 145.619776 17.891045 
L 147.961253 18.839912 
L 150.425964 20.088039 
L 152.890676 21.587013 
L 155.478624 23.424411 
L 158.189807 25.630167 
L 161.024226 28.232157 
L 163.98188 31.2553 
L 167.06277 34.720576 
L 170.390131 38.801013 
L 173.963963 43.541748 
L 177.907502 49.156865 
L 182.220748 55.694405 
L 187.273407 63.775 
L 193.681658 74.477246 
L 198.980788 83.52217 
L 198.980788 83.52217 
" clip-path="url(#pe525e09464)" style="fill: none; stroke: #d14895; stroke-width: 2; stroke-linecap: square"/>
   </g>
   <g id="line2d_20">
    <path d="M 75.86843 16.429288 
L 78.086671 16.536748 
L 80.304912 16.858781 
L 82.646388 17.430343 
L 84.987864 18.237785 
L 87.329341 19.278229 
L 89.794052 20.621055 
L 92.382 22.29862 
L 94.969947 24.243097 
L 97.68113 26.557196 
L 100.515549 29.267702 
L 103.596439 32.535186 
L 106.800564 36.267194 
L 110.251161 40.638617 
L 113.948229 45.690056 
L 118.015003 51.633445 
L 122.57472 58.702052 
L 127.997086 67.536714 
L 135.514458 80.253127 
L 148.330959 101.954621 
L 153.876561 110.869116 
L 158.436278 117.796826 
L 162.503053 123.58726 
L 166.20012 128.478753 
L 169.650717 132.684226 
L 172.854843 136.248878 
L 175.935732 139.344466 
L 178.770151 141.888248 
L 181.481334 144.036004 
L 184.069282 145.816176 
L 186.657229 147.324769 
L 189.121941 148.503005 
L 191.463417 149.384378 
L 193.804893 150.030689 
L 196.14637 150.43963 
L 198.36461 150.606758 
L 198.980788 150.615051 
L 198.980788 150.615051 
" clip-path="url(#pe525e09464)" style="fill: none; stroke: #efb0d6; stroke-width: 2; stroke-linecap: square"/>
   </g>
   <g id="patch_3">
    <path d="M 69.712812 157.324339 
L 69.712812 9.72 
" style="fill: none; stroke: #000000; stroke-width: 0.7; stroke-linejoin: miter; stroke-linecap: square"/>
   </g>
   <g id="patch_4">
    <path d="M 205.136406 157.324339 
L 205.136406 9.72 
" style="fill: none; stroke: #000000; stroke-width: 0.7; stroke-linejoin: miter; stroke-linecap: square"/>
   </g>
   <g id="patch_5">
    <path d="M 69.712812 157.324339 
L 205.136406 157.324339 
" style="fill: none; stroke: #000000; stroke-width: 0.7; stroke-linejoin: miter; stroke-linecap: square"/>
   </g>
   <g id="patch_6">
    <path d="M 69.712812 9.72 
L 205.136406 9.72 
" style="fill: none; stroke: #000000; stroke-width: 0.7; stroke-linejoin: miter; stroke-linecap: square"/>
   </g>
   <g id="text_6">
    <g id="patch_7">
     <path d="M 155.741394 150.001388 
L 197.021394 150.001388 
Q 200.621394 150.001388 200.621394 146.401388 
L 200.621394 134.787638 
Q 200.621394 131.187638 197.021394 131.187638 
L 155.741394 131.187638 
Q 152.141394 131.187638 152.141394 134.787638 
L 152.141394 146.401388 
Q 152.141394 150.001388 155.741394 150.001388 
z
" style="fill: #ffffff; opacity: 0.8; stroke: #000000; stroke-width: 0.4; stroke-linejoin: miter"/>
    </g>
    <!-- $a = 0.5$ -->
    <g transform="translate(155.741394 143.905763) scale(0.12 -0.12)">
     <defs>
      <path id="DejaVuSans-Oblique-61" d="M 3438 1997 
L 3047 0 
L 2472 0 
L 2578 531 
Q 2325 219 2001 64 
Q 1678 -91 1281 -91 
Q 834 -91 548 182 
Q 263 456 263 884 
Q 263 1497 752 1853 
Q 1241 2209 2100 2209 
L 2900 2209 
L 2931 2363 
Q 2938 2388 2941 2417 
Q 2944 2447 2944 2509 
Q 2944 2788 2717 2942 
Q 2491 3097 2081 3097 
Q 1800 3097 1504 3025 
Q 1209 2953 897 2809 
L 997 3341 
Q 1322 3463 1633 3523 
Q 1944 3584 2234 3584 
Q 2853 3584 3176 3315 
Q 3500 3047 3500 2534 
Q 3500 2431 3484 2292 
Q 3469 2153 3438 1997 
z
M 2816 1759 
L 2241 1759 
Q 1534 1759 1195 1570 
Q 856 1381 856 984 
Q 856 709 1029 553 
Q 1203 397 1509 397 
Q 1978 397 2328 733 
Q 2678 1069 2791 1631 
L 2816 1759 
z
" transform="scale(0.015625)"/>
      <path id="DejaVuSans-3d" d="M 678 2906 
L 4684 2906 
L 4684 2381 
L 678 2381 
L 678 2906 
z
M 678 1631 
L 4684 1631 
L 4684 1100 
L 678 1100 
L 678 1631 
z
" transform="scale(0.015625)"/>
     </defs>
     <use xlink:href="#DejaVuSans-Oblique-61" transform="translate(0 0.78125)"/>
     <use xlink:href="#DejaVuSans-3d" transform="translate(80.761719 0.78125)"/>
     <use xlink:href="#DejaVuSans-30" transform="translate(184.033203 0.78125)"/>
     <use xlink:href="#DejaVuSans-2e" transform="translate(247.65625 0.78125)"/>
     <use xlink:href="#DejaVuSans-35" transform="translate(279.443359 0.78125)"/>
    </g>
   </g>
   <g id="legend_1">
    <g id="line2d_21">
     <path d="M 78.712812 128.066527 
L 85.462812 128.066527 
L 92.212812 128.066527 
" style="fill: none; stroke: #d14895; stroke-width: 2; stroke-linecap: square"/>
    </g>
    <g id="text_7">
     <!-- $sin(ax)$ -->
     <g transform="translate(100.212812 131.566527) scale(0.1 -0.1)">
      <defs>
       <path id="DejaVuSans-Oblique-73" d="M 3200 3397 
L 3091 2853 
Q 2863 2978 2609 3040 
Q 2356 3103 2088 3103 
Q 1634 3103 1373 2948 
Q 1113 2794 1113 2528 
Q 1113 2219 1719 2053 
Q 1766 2041 1788 2034 
L 1972 1978 
Q 2547 1819 2739 1644 
Q 2931 1469 2931 1166 
Q 2931 609 2489 259 
Q 2047 -91 1331 -91 
Q 1053 -91 747 -37 
Q 441 16 72 128 
L 184 722 
Q 500 559 806 475 
Q 1113 391 1394 391 
Q 1816 391 2080 572 
Q 2344 753 2344 1031 
Q 2344 1331 1650 1516 
L 1591 1531 
L 1394 1581 
Q 956 1697 753 1886 
Q 550 2075 550 2369 
Q 550 2928 970 3256 
Q 1391 3584 2113 3584 
Q 2397 3584 2667 3537 
Q 2938 3491 3200 3397 
z
" transform="scale(0.015625)"/>
       <path id="DejaVuSans-Oblique-69" d="M 1172 4863 
L 1747 4863 
L 1606 4134 
L 1031 4134 
L 1172 4863 
z
M 909 3500 
L 1484 3500 
L 800 0 
L 225 0 
L 909 3500 
z
" transform="scale(0.015625)"/>
       <path id="DejaVuSans-Oblique-6e" d="M 3566 2113 
L 3156 0 
L 2578 0 
L 2988 2091 
Q 3016 2238 3031 2350 
Q 3047 2463 3047 2528 
Q 3047 2791 2881 2937 
Q 2716 3084 2419 3084 
Q 1956 3084 1622 2776 
Q 1288 2469 1184 1941 
L 800 0 
L 225 0 
L 903 3500 
L 1478 3500 
L 1363 2950 
Q 1603 3253 1940 3418 
Q 2278 3584 2650 3584 
Q 3113 3584 3367 3334 
Q 3622 3084 3622 2631 
Q 3622 2519 3608 2391 
Q 3594 2263 3566 2113 
z
" transform="scale(0.015625)"/>
       <path id="DejaVuSans-28" d="M 1984 4856 
Q 1566 4138 1362 3434 
Q 1159 2731 1159 2009 
Q 1159 1288 1364 580 
Q 1569 -128 1984 -844 
L 1484 -844 
Q 1016 -109 783 600 
Q 550 1309 550 2009 
Q 550 2706 781 3412 
Q 1013 4119 1484 4856 
L 1984 4856 
z
" transform="scale(0.015625)"/>
       <path id="DejaVuSans-Oblique-78" d="M 3841 3500 
L 2234 1784 
L 3219 0 
L 2559 0 
L 1819 1388 
L 531 0 
L -166 0 
L 1556 1844 
L 641 3500 
L 1300 3500 
L 1972 2234 
L 3144 3500 
L 3841 3500 
z
" transform="scale(0.015625)"/>
       <path id="DejaVuSans-29" d="M 513 4856 
L 1013 4856 
Q 1481 4119 1714 3412 
Q 1947 2706 1947 2009 
Q 1947 1309 1714 600 
Q 1481 -109 1013 -844 
L 513 -844 
Q 928 -128 1133 580 
Q 1338 1288 1338 2009 
Q 1338 2731 1133 3434 
Q 928 4138 513 4856 
z
" transform="scale(0.015625)"/>
      </defs>
      <use xlink:href="#DejaVuSans-Oblique-73" transform="translate(0 0.015625)"/>
      <use xlink:href="#DejaVuSans-Oblique-69" transform="translate(52.099609 0.015625)"/>
      <use xlink:href="#DejaVuSans-Oblique-6e" transform="translate(79.882812 0.015625)"/>
      <use xlink:href="#DejaVuSans-28" transform="translate(143.261719 0.015625)"/>
      <use xlink:href="#DejaVuSans-Oblique-61" transform="translate(182.275391 0.015625)"/>
      <use xlink:href="#DejaVuSans-Oblique-78" transform="translate(243.554688 0.015625)"/>
      <use xlink:href="#DejaVuSans-29" transform="translate(302.734375 0.015625)"/>
     </g>
    </g>
    <g id="line2d_22">
     <path d="M 78.712812 142.744652 
L 85.462812 142.744652 
L 92.212812 142.744652 
" style="fill: none; stroke: #efb0d6; stroke-width: 2; stroke-linecap: square"/>
    </g>
    <g id="text_8">
     <!-- $cos(ax)$ -->
     <g transform="translate(100.212812 146.244652) scale(0.1 -0.1)">
      <defs>
       <path id="DejaVuSans-Oblique-63" d="M 3431 3366 
L 3316 2797 
Q 3109 2947 2876 3022 
Q 2644 3097 2394 3097 
Q 2119 3097 1870 3000 
Q 1622 2903 1453 2725 
Q 1184 2453 1037 2087 
Q 891 1722 891 1331 
Q 891 859 1127 628 
Q 1363 397 1844 397 
Q 2081 397 2348 469 
Q 2616 541 2906 684 
L 2797 116 
Q 2547 13 2283 -39 
Q 2019 -91 1741 -91 
Q 1044 -91 669 257 
Q 294 606 294 1253 
Q 294 1797 489 2255 
Q 684 2713 1069 3078 
Q 1331 3328 1684 3456 
Q 2038 3584 2456 3584 
Q 2700 3584 2940 3529 
Q 3181 3475 3431 3366 
z
" transform="scale(0.015625)"/>
       <path id="DejaVuSans-Oblique-6f" d="M 1625 -91 
Q 1009 -91 651 289 
Q 294 669 294 1325 
Q 294 1706 417 2101 
Q 541 2497 738 2766 
Q 1047 3184 1428 3384 
Q 1809 3584 2291 3584 
Q 2888 3584 3255 3212 
Q 3622 2841 3622 2241 
Q 3622 1825 3500 1412 
Q 3378 1000 3181 728 
Q 2875 309 2494 109 
Q 2113 -91 1625 -91 
z
M 891 1344 
Q 891 869 1089 633 
Q 1288 397 1691 397 
Q 2269 397 2648 901 
Q 3028 1406 3028 2181 
Q 3028 2634 2825 2865 
Q 2622 3097 2228 3097 
Q 1903 3097 1650 2945 
Q 1397 2794 1197 2484 
Q 1050 2253 970 1956 
Q 891 1659 891 1344 
z
" transform="scale(0.015625)"/>
      </defs>
      <use xlink:href="#DejaVuSans-Oblique-63" transform="translate(0 0.125)"/>
      <use xlink:href="#DejaVuSans-Oblique-6f" transform="translate(54.980469 0.125)"/>
      <use xlink:href="#DejaVuSans-Oblique-73" transform="translate(116.162109 0.125)"/>
      <use xlink:href="#DejaVuSans-28" transform="translate(168.261719 0.125)"/>
      <use xlink:href="#DejaVuSans-Oblique-61" transform="translate(207.275391 0.125)"/>
      <use xlink:href="#DejaVuSans-Oblique-78" transform="translate(268.554688 0.125)"/>
      <use xlink:href="#DejaVuSans-29" transform="translate(327.734375 0.125)"/>
     </g>
    </g>
   </g>
  </g>
  <g id="axes_2">
   <g id="patch_8">
    <path d="M 214.856406 157.324339 
L 350.28 157.324339 
L 350.28 9.72 
L 214.856406 9.72 
z
" style="fill: #ffffff"/>
   </g>
   <g id="matplotlib.axis_3">
    <g id="xtick_5">
     <g id="line2d_23">
      <path d="M 221.012024 157.324339 
L 221.012024 9.72 
" clip-path="url(#p266922bc8a)" style="fill: none; stroke: #cccccc; stroke-opacity: 0.2; stroke-width: 0.8; stroke-linecap: square"/>
     </g>
     <g id="line2d_24"/>
    </g>
    <g id="xtick_6">
     <g id="line2d_25">
      <path d="M 260.199905 157.324339 
L 260.199905 9.72 
" clip-path="url(#p266922bc8a)" style="fill: none; stroke: #cccccc; stroke-opacity: 0.2; stroke-width: 0.8; stroke-linecap: square"/>
     </g>
     <g id="line2d_26"/>
    </g>
    <g id="xtick_7">
     <g id="line2d_27">
      <path d="M 299.387785 157.324339 
L 299.387785 9.72 
" clip-path="url(#p266922bc8a)" style="fill: none; stroke: #cccccc; stroke-opacity: 0.2; stroke-width: 0.8; stroke-linecap: square"/>
     </g>
     <g id="line2d_28"/>
    </g>
    <g id="xtick_8">
     <g id="line2d_29">
      <path d="M 338.575666 157.324339 
L 338.575666 9.72 
" clip-path="url(#p266922bc8a)" style="fill: none; stroke: #cccccc; stroke-opacity: 0.2; stroke-width: 0.8; stroke-linecap: square"/>
     </g>
     <g id="line2d_30"/>
    </g>
   </g>
   <g id="matplotlib.axis_4">
    <g id="ytick_6">
     <g id="line2d_31">
      <path d="M 214.856406 150.615051 
L 350.28 150.615051 
" clip-path="url(#p266922bc8a)" style="fill: none; stroke: #cccccc; stroke-opacity: 0.2; stroke-width: 0.8; stroke-linecap: square"/>
     </g>
     <g id="line2d_32"/>
    </g>
    <g id="ytick_7">
     <g id="line2d_33">
      <path d="M 214.856406 117.068611 
L 350.28 117.068611 
" clip-path="url(#p266922bc8a)" style="fill: none; stroke: #cccccc; stroke-opacity: 0.2; stroke-width: 0.8; stroke-linecap: square"/>
     </g>
     <g id="line2d_34"/>
    </g>
    <g id="ytick_8">
     <g id="line2d_35">
      <path d="M 214.856406 83.52217 
L 350.28 83.52217 
" clip-path="url(#p266922bc8a)" style="fill: none; stroke: #cccccc; stroke-opacity: 0.2; stroke-width: 0.8; stroke-linecap: square"/>
     </g>
     <g id="line2d_36"/>
    </g>
    <g id="ytick_9">
     <g id="line2d_37">
      <path d="M 214.856406 49.975729 
L 350.28 49.975729 
" clip-path="url(#p266922bc8a)" style="fill: none; stroke: #cccccc; stroke-opacity: 0.2; stroke-width: 0.8; stroke-linecap: square"/>
     </g>
     <g id="line2d_38"/>
    </g>
    <g id="ytick_10">
     <g id="line2d_39">
      <path d="M 214.856406 16.429288 
L 350.28 16.429288 
" clip-path="url(#p266922bc8a)" style="fill: none; stroke: #cccccc; stroke-opacity: 0.2; stroke-width: 0.8; stroke-linecap: square"/>
     </g>
     <g id="line2d_40"/>
    </g>
   </g>
   <g id="line2d_41">
    <path d="M 221.012024 83.52217 
L 227.420275 61.968357 
L 230.747636 51.540667 
L 233.582055 43.372509 
L 236.046767 36.945902 
L 238.265007 31.788579 
L 240.236777 27.758466 
L 242.085311 24.491974 
L 243.687373 22.08476 
L 245.1662 20.226739 
L 246.645028 18.729095 
L 248.000619 17.680156 
L 249.232975 16.99984 
L 250.465331 16.582583 
L 251.574451 16.433352 
L 252.683572 16.499027 
L 253.792692 16.779398 
L 254.901812 17.273565 
L 256.134168 18.071442 
L 257.366524 19.12814 
L 258.722116 20.584429 
L 260.200943 22.516264 
L 261.803006 25.000659 
L 263.528304 28.112911 
L 265.376838 31.923181 
L 267.348607 36.492385 
L 269.566848 42.199043 
L 272.03156 49.156865 
L 274.989214 58.212771 
L 278.686282 70.316617 
L 291.749255 113.821798 
L 294.583673 122.134583 
L 297.048385 128.713179 
L 299.266626 134.026084 
L 301.238396 138.207776 
L 303.086929 141.62631 
L 304.812228 144.351244 
L 306.41429 146.45991 
L 307.893118 148.033405 
L 309.248709 149.153294 
L 310.481065 149.898995 
L 311.713421 150.382212 
L 312.822541 150.591084 
L 313.931662 150.585113 
L 315.040782 150.364319 
L 316.149902 149.92941 
L 317.382258 149.196772 
L 318.614614 148.204427 
L 319.970206 146.817601 
L 321.449033 144.95958 
L 323.051096 142.552365 
L 324.776394 139.519415 
L 326.624928 135.78904 
L 328.596697 131.298493 
L 330.814938 125.67126 
L 333.27965 118.789245 
L 336.114069 110.193137 
L 339.687901 98.583945 
L 344.124382 83.52217 
L 344.124382 83.52217 
" clip-path="url(#p266922bc8a)" style="fill: none; stroke: #d14895; stroke-width: 2; stroke-linecap: square"/>
   </g>
   <g id="line2d_42">
    <path d="M 221.012024 16.429288 
L 222.121144 16.536748 
L 223.230265 16.858781 
L 224.462621 17.46698 
L 225.694977 18.336391 
L 227.050568 19.590309 
L 228.40616 21.150111 
L 229.884987 23.191767 
L 231.48705 25.790774 
L 233.212348 29.020529 
L 235.060882 32.94887 
L 237.155887 37.942688 
L 239.497363 44.137189 
L 242.085311 51.633445 
L 245.1662 61.270357 
L 249.232975 74.79094 
L 259.338294 108.733836 
L 262.542419 118.519619 
L 265.130367 125.753286 
L 267.471843 131.667345 
L 269.566848 136.37909 
L 271.538618 140.263079 
L 273.263916 143.191819 
L 274.865979 145.497812 
L 276.344806 147.259191 
L 277.700397 148.555206 
L 279.055989 149.540068 
L 280.288345 150.161393 
L 281.520701 150.519197 
L 282.629821 150.61472 
L 283.738941 150.495324 
L 284.848062 150.161393 
L 286.080418 149.540068 
L 287.312773 148.657678 
L 288.668365 147.389716 
L 290.023957 145.816176 
L 291.502784 143.759962 
L 293.104846 141.145781 
L 294.830145 137.900492 
L 296.678679 133.956573 
L 298.773684 128.9466 
L 301.11516 122.736145 
L 303.703107 115.225103 
L 306.783997 105.574825 
L 310.850772 92.044161 
L 320.832855 58.506154 
L 324.03698 48.704904 
L 326.748163 41.127314 
L 329.08964 35.230286 
L 331.184645 30.535561 
L 333.033179 26.894135 
L 334.758477 23.949282 
L 336.36054 21.627652 
L 337.839367 19.851357 
L 339.194958 18.541334 
L 340.55055 17.542216 
L 341.782906 16.90777 
L 343.015262 16.536748 
L 344.124382 16.429288 
L 344.124382 16.429288 
" clip-path="url(#p266922bc8a)" style="fill: none; stroke: #efb0d6; stroke-width: 2; stroke-linecap: square"/>
   </g>
   <g id="patch_9">
    <path d="M 214.856406 157.324339 
L 214.856406 9.72 
" style="fill: none; stroke: #000000; stroke-width: 0.7; stroke-linejoin: miter; stroke-linecap: square"/>
   </g>
   <g id="patch_10">
    <path d="M 350.28 157.324339 
L 350.28 9.72 
" style="fill: none; stroke: #000000; stroke-width: 0.7; stroke-linejoin: miter; stroke-linecap: square"/>
   </g>
   <g id="patch_11">
    <path d="M 214.856406 157.324339 
L 350.28 157.324339 
" style="fill: none; stroke: #000000; stroke-width: 0.7; stroke-linejoin: miter; stroke-linecap: square"/>
   </g>
   <g id="patch_12">
    <path d="M 214.856406 9.72 
L 350.28 9.72 
" style="fill: none; stroke: #000000; stroke-width: 0.7; stroke-linejoin: miter; stroke-linecap: square"/>
   </g>
   <g id="text_9">
    <g id="patch_13">
     <path d="M 300.884988 150.001388 
L 342.164988 150.001388 
Q 345.764988 150.001388 345.764988 146.401388 
L 345.764988 134.787638 
Q 345.764988 131.187638 342.164988 131.187638 
L 300.884988 131.187638 
Q 297.284988 131.187638 297.284988 134.787638 
L 297.284988 146.401388 
Q 297.284988 150.001388 300.884988 150.001388 
z
" style="fill: #ffffff; opacity: 0.8; stroke: #000000; stroke-width: 0.4; stroke-linejoin: miter"/>
    </g>
    <!-- $a = 1.0$ -->
    <g transform="translate(300.884988 143.905763) scale(0.12 -0.12)">
     <use xlink:href="#DejaVuSans-Oblique-61" transform="translate(0 0.78125)"/>
     <use xlink:href="#DejaVuSans-3d" transform="translate(80.761719 0.78125)"/>
     <use xlink:href="#DejaVuSans-31" transform="translate(184.033203 0.78125)"/>
     <use xlink:href="#DejaVuSans-2e" transform="translate(247.65625 0.78125)"/>
     <use xlink:href="#DejaVuSans-30" transform="translate(279.443359 0.78125)"/>
    </g>
   </g>
  </g>
  <g id="axes_3">
   <g id="patch_14">
    <path d="M 69.712812 314.800313 
L 205.136406 314.800313 
L 205.136406 167.195973 
L 69.712812 167.195973 
z
" style="fill: #ffffff"/>
   </g>
   <g id="matplotlib.axis_5">
    <g id="xtick_9">
     <g id="line2d_43">
      <path d="M 75.86843 314.800313 
L 75.86843 167.195973 
" clip-path="url(#pcf9ea6926d)" style="fill: none; stroke: #cccccc; stroke-opacity: 0.2; stroke-width: 0.8; stroke-linecap: square"/>
     </g>
     <g id="line2d_44"/>
     <g id="text_10">
      <!-- 0 -->
      <g transform="translate(72.68718 325.89875) scale(0.1 -0.1)">
       <use xlink:href="#DejaVuSans-30"/>
      </g>
     </g>
    </g>
    <g id="xtick_10">
     <g id="line2d_45">
      <path d="M 115.056311 314.800313 
L 115.056311 167.195973 
" clip-path="url(#pcf9ea6926d)" style="fill: none; stroke: #cccccc; stroke-opacity: 0.2; stroke-width: 0.8; stroke-linecap: square"/>
     </g>
     <g id="line2d_46"/>
     <g id="text_11">
      <!-- 2 -->
      <g transform="translate(111.875061 325.89875) scale(0.1 -0.1)">
       <defs>
        <path id="DejaVuSans-32" d="M 1228 531 
L 3431 531 
L 3431 0 
L 469 0 
L 469 531 
Q 828 903 1448 1529 
Q 2069 2156 2228 2338 
Q 2531 2678 2651 2914 
Q 2772 3150 2772 3378 
Q 2772 3750 2511 3984 
Q 2250 4219 1831 4219 
Q 1534 4219 1204 4116 
Q 875 4013 500 3803 
L 500 4441 
Q 881 4594 1212 4672 
Q 1544 4750 1819 4750 
Q 2544 4750 2975 4387 
Q 3406 4025 3406 3419 
Q 3406 3131 3298 2873 
Q 3191 2616 2906 2266 
Q 2828 2175 2409 1742 
Q 1991 1309 1228 531 
z
" transform="scale(0.015625)"/>
       </defs>
       <use xlink:href="#DejaVuSans-32"/>
      </g>
     </g>
    </g>
    <g id="xtick_11">
     <g id="line2d_47">
      <path d="M 154.244192 314.800313 
L 154.244192 167.195973 
" clip-path="url(#pcf9ea6926d)" style="fill: none; stroke: #cccccc; stroke-opacity: 0.2; stroke-width: 0.8; stroke-linecap: square"/>
     </g>
     <g id="line2d_48"/>
     <g id="text_12">
      <!-- 4 -->
      <g transform="translate(151.062942 325.89875) scale(0.1 -0.1)">
       <defs>
        <path id="DejaVuSans-34" d="M 2419 4116 
L 825 1625 
L 2419 1625 
L 2419 4116 
z
M 2253 4666 
L 3047 4666 
L 3047 1625 
L 3713 1625 
L 3713 1100 
L 3047 1100 
L 3047 0 
L 2419 0 
L 2419 1100 
L 313 1100 
L 313 1709 
L 2253 4666 
z
" transform="scale(0.015625)"/>
       </defs>
       <use xlink:href="#DejaVuSans-34"/>
      </g>
     </g>
    </g>
    <g id="xtick_12">
     <g id="line2d_49">
      <path d="M 193.432072 314.800313 
L 193.432072 167.195973 
" clip-path="url(#pcf9ea6926d)" style="fill: none; stroke: #cccccc; stroke-opacity: 0.2; stroke-width: 0.8; stroke-linecap: square"/>
     </g>
     <g id="line2d_50"/>
     <g id="text_13">
      <!-- 6 -->
      <g transform="translate(190.250822 325.89875) scale(0.1 -0.1)">
       <defs>
        <path id="DejaVuSans-36" d="M 2113 2584 
Q 1688 2584 1439 2293 
Q 1191 2003 1191 1497 
Q 1191 994 1439 701 
Q 1688 409 2113 409 
Q 2538 409 2786 701 
Q 3034 994 3034 1497 
Q 3034 2003 2786 2293 
Q 2538 2584 2113 2584 
z
M 3366 4563 
L 3366 3988 
Q 3128 4100 2886 4159 
Q 2644 4219 2406 4219 
Q 1781 4219 1451 3797 
Q 1122 3375 1075 2522 
Q 1259 2794 1537 2939 
Q 1816 3084 2150 3084 
Q 2853 3084 3261 2657 
Q 3669 2231 3669 1497 
Q 3669 778 3244 343 
Q 2819 -91 2113 -91 
Q 1303 -91 875 529 
Q 447 1150 447 2328 
Q 447 3434 972 4092 
Q 1497 4750 2381 4750 
Q 2619 4750 2861 4703 
Q 3103 4656 3366 4563 
z
" transform="scale(0.015625)"/>
       </defs>
       <use xlink:href="#DejaVuSans-36"/>
      </g>
     </g>
    </g>
   </g>
   <g id="matplotlib.axis_6">
    <g id="ytick_11">
     <g id="line2d_51">
      <path d="M 69.712812 308.091024 
L 205.136406 308.091024 
" clip-path="url(#pcf9ea6926d)" style="fill: none; stroke: #cccccc; stroke-opacity: 0.2; stroke-width: 0.8; stroke-linecap: square"/>
     </g>
     <g id="line2d_52"/>
     <g id="text_14">
      <!-- −1.0 -->
      <g transform="translate(41.93 311.890243) scale(0.1 -0.1)">
       <use xlink:href="#DejaVuSans-2212"/>
       <use xlink:href="#DejaVuSans-31" x="83.789062"/>
       <use xlink:href="#DejaVuSans-2e" x="147.412109"/>
       <use xlink:href="#DejaVuSans-30" x="179.199219"/>
      </g>
     </g>
    </g>
    <g id="ytick_12">
     <g id="line2d_53">
      <path d="M 69.712812 274.544584 
L 205.136406 274.544584 
" clip-path="url(#pcf9ea6926d)" style="fill: none; stroke: #cccccc; stroke-opacity: 0.2; stroke-width: 0.8; stroke-linecap: square"/>
     </g>
     <g id="line2d_54"/>
     <g id="text_15">
      <!-- −0.5 -->
      <g transform="translate(41.93 278.343802) scale(0.1 -0.1)">
       <use xlink:href="#DejaVuSans-2212"/>
       <use xlink:href="#DejaVuSans-30" x="83.789062"/>
       <use xlink:href="#DejaVuSans-2e" x="147.412109"/>
       <use xlink:href="#DejaVuSans-35" x="179.199219"/>
      </g>
     </g>
    </g>
    <g id="ytick_13">
     <g id="line2d_55">
      <path d="M 69.712812 240.998143 
L 205.136406 240.998143 
" clip-path="url(#pcf9ea6926d)" style="fill: none; stroke: #cccccc; stroke-opacity: 0.2; stroke-width: 0.8; stroke-linecap: square"/>
     </g>
     <g id="line2d_56"/>
     <g id="text_16">
      <!-- 0.0 -->
      <g transform="translate(50.309687 244.797362) scale(0.1 -0.1)">
       <use xlink:href="#DejaVuSans-30"/>
       <use xlink:href="#DejaVuSans-2e" x="63.623047"/>
       <use xlink:href="#DejaVuSans-30" x="95.410156"/>
      </g>
     </g>
    </g>
    <g id="ytick_14">
     <g id="line2d_57">
      <path d="M 69.712812 207.451702 
L 205.136406 207.451702 
" clip-path="url(#pcf9ea6926d)" style="fill: none; stroke: #cccccc; stroke-opacity: 0.2; stroke-width: 0.8; stroke-linecap: square"/>
     </g>
     <g id="line2d_58"/>
     <g id="text_17">
      <!-- 0.5 -->
      <g transform="translate(50.309687 211.250921) scale(0.1 -0.1)">
       <use xlink:href="#DejaVuSans-30"/>
       <use xlink:href="#DejaVuSans-2e" x="63.623047"/>
       <use xlink:href="#DejaVuSans-35" x="95.410156"/>
      </g>
     </g>
    </g>
    <g id="ytick_15">
     <g id="line2d_59">
      <path d="M 69.712812 173.905261 
L 205.136406 173.905261 
" clip-path="url(#pcf9ea6926d)" style="fill: none; stroke: #cccccc; stroke-opacity: 0.2; stroke-width: 0.8; stroke-linecap: square"/>
     </g>
     <g id="line2d_60"/>
     <g id="text_18">
      <!-- 1.0 -->
      <g transform="translate(50.309687 177.70448) scale(0.1 -0.1)">
       <use xlink:href="#DejaVuSans-31"/>
       <use xlink:href="#DejaVuSans-2e" x="63.623047"/>
       <use xlink:href="#DejaVuSans-30" x="95.410156"/>
      </g>
     </g>
    </g>
   </g>
   <g id="line2d_61">
    <path d="M 75.86843 240.998143 
L 80.674619 216.865589 
L 83.262566 205.015919 
L 85.357571 196.43449 
L 87.082869 190.217436 
L 88.684932 185.234439 
L 90.040524 181.669734 
L 91.27288 178.982167 
L 92.382 177.034361 
L 93.367885 175.68951 
L 94.353769 174.7165 
L 95.216419 174.174547 
L 95.955832 173.941834 
L 96.695246 173.923921 
L 97.434659 174.120868 
L 98.174073 174.532043 
L 99.036722 175.280712 
L 99.899371 176.315885 
L 100.885256 177.843915 
L 101.994376 179.992238 
L 103.226732 182.894003 
L 104.582324 186.681681 
L 106.061151 191.478663 
L 107.786449 197.87167 
L 109.758219 206.090742 
L 112.099695 216.865589 
L 115.30382 232.790166 
L 122.328249 268.055784 
L 124.792961 279.091206 
L 126.764731 286.963281 
L 128.490029 292.999402 
L 130.092092 297.795279 
L 131.447683 301.189406 
L 132.680039 303.713795 
L 133.789159 305.509378 
L 134.775044 306.715573 
L 135.637693 307.464243 
L 136.500342 307.923144 
L 137.239756 308.084306 
L 137.97917 308.030571 
L 138.718583 307.762111 
L 139.581232 307.178705 
L 140.443881 306.306775 
L 141.429766 304.961925 
L 142.538887 303.014118 
L 143.771242 300.326552 
L 145.126834 296.761847 
L 146.605661 292.190269 
L 148.207724 286.500155 
L 150.056258 279.091206 
L 152.274498 269.209325 
L 155.108917 255.442444 
L 164.721293 207.726158 
L 166.939534 198.358464 
L 168.788068 191.478663 
L 170.390131 186.312537 
L 171.868958 182.271415 
L 173.224549 179.22646 
L 174.33367 177.228254 
L 175.44279 175.68951 
L 176.428675 174.7165 
L 177.291324 174.174547 
L 178.030737 173.941834 
L 178.770151 173.923921 
L 179.509565 174.120868 
L 180.248978 174.532043 
L 181.111627 175.280712 
L 181.974276 176.315885 
L 182.960161 177.843915 
L 184.069282 179.992238 
L 185.301637 182.894003 
L 186.657229 186.681681 
L 188.136056 191.478663 
L 189.861354 197.87167 
L 191.833124 206.090742 
L 194.1746 216.865589 
L 197.378726 232.790166 
L 198.980788 240.998143 
L 198.980788 240.998143 
" clip-path="url(#pcf9ea6926d)" style="fill: none; stroke: #d14895; stroke-width: 2; stroke-linecap: square"/>
   </g>
   <g id="line2d_62">
    <path d="M 75.86843 173.905261 
L 76.607844 174.012721 
L 77.347258 174.334754 
L 78.209907 174.980245 
L 79.072556 175.913548 
L 80.058441 177.32733 
L 81.167561 179.35067 
L 82.399917 182.119026 
L 83.755508 185.767958 
L 85.234336 190.424843 
L 86.959634 196.671572 
L 88.931403 204.7492 
L 91.149644 214.812001 
L 94.107298 229.347586 
L 102.487319 271.203609 
L 104.828795 281.400918 
L 106.800564 288.996133 
L 108.525863 294.751836 
L 110.00469 298.943395 
L 111.360281 302.135088 
L 112.592637 304.466556 
L 113.701758 306.082737 
L 114.687642 307.125954 
L 115.550292 307.730069 
L 116.289705 308.016394 
L 117.029119 308.088039 
L 117.768532 307.944774 
L 118.507946 307.58706 
L 119.370595 306.900252 
L 120.233244 305.926135 
L 121.219129 304.466556 
L 122.328249 302.393084 
L 123.560605 299.571175 
L 124.916197 295.866497 
L 126.395024 291.153258 
L 128.120322 284.847596 
L 130.092092 276.712847 
L 132.433568 266.014158 
L 135.514458 250.774226 
L 143.031829 213.07442 
L 145.373305 202.644978 
L 147.345075 194.802974 
L 149.070373 188.797482 
L 150.5492 184.370108 
L 151.904792 180.947359 
L 153.137148 178.39563 
L 154.246268 176.574573 
L 155.232153 175.345198 
L 156.094802 174.575941 
L 156.957451 174.09626 
L 157.696865 173.917204 
L 158.436278 173.953028 
L 159.175692 174.203618 
L 160.038341 174.766303 
L 160.90099 175.617735 
L 161.886875 176.939548 
L 162.995995 178.86209 
L 164.105115 181.232322 
L 165.337471 184.370108 
L 166.816298 188.797482 
L 168.418361 194.346 
L 170.266895 201.613162 
L 172.3619 210.792676 
L 174.949848 223.175115 
L 179.263093 245.10986 
L 183.453104 266.014158 
L 185.917815 277.247086 
L 188.012821 285.797886 
L 189.738119 291.985126 
L 191.340182 296.93721 
L 192.695773 300.47368 
L 193.928129 303.134196 
L 195.037249 305.056737 
L 196.023134 306.37855 
L 197.009019 307.328115 
L 197.871668 307.849321 
L 198.611082 308.064154 
L 198.980788 308.091024 
L 198.980788 308.091024 
" clip-path="url(#pcf9ea6926d)" style="fill: none; stroke: #efb0d6; stroke-width: 2; stroke-linecap: square"/>
   </g>
   <g id="patch_15">
    <path d="M 69.712812 314.800313 
L 69.712812 167.195973 
" style="fill: none; stroke: #000000; stroke-width: 0.7; stroke-linejoin: miter; stroke-linecap: square"/>
   </g>
   <g id="patch_16">
    <path d="M 205.136406 314.800313 
L 205.136406 167.195973 
" style="fill: none; stroke: #000000; stroke-width: 0.7; stroke-linejoin: miter; stroke-linecap: square"/>
   </g>
   <g id="patch_17">
    <path d="M 69.712812 314.800313 
L 205.136406 314.800313 
" style="fill: none; stroke: #000000; stroke-width: 0.7; stroke-linejoin: miter; stroke-linecap: square"/>
   </g>
   <g id="patch_18">
    <path d="M 69.712812 167.195973 
L 205.136406 167.195973 
" style="fill: none; stroke: #000000; stroke-width: 0.7; stroke-linejoin: miter; stroke-linecap: square"/>
   </g>
   <g id="text_19">
    <g id="patch_19">
     <path d="M 155.741394 307.477361 
L 197.021394 307.477361 
Q 200.621394 307.477361 200.621394 303.877361 
L 200.621394 292.263611 
Q 200.621394 288.663611 197.021394 288.663611 
L 155.741394 288.663611 
Q 152.141394 288.663611 152.141394 292.263611 
L 152.141394 303.877361 
Q 152.141394 307.477361 155.741394 307.477361 
z
" style="fill: #ffffff; opacity: 0.8; stroke: #000000; stroke-width: 0.4; stroke-linejoin: miter"/>
    </g>
    <!-- $a = 1.5$ -->
    <g transform="translate(155.741394 301.381736) scale(0.12 -0.12)">
     <use xlink:href="#DejaVuSans-Oblique-61" transform="translate(0 0.09375)"/>
     <use xlink:href="#DejaVuSans-3d" transform="translate(80.761719 0.09375)"/>
     <use xlink:href="#DejaVuSans-31" transform="translate(184.033203 0.09375)"/>
     <use xlink:href="#DejaVuSans-2e" transform="translate(247.65625 0.09375)"/>
     <use xlink:href="#DejaVuSans-35" transform="translate(279.443359 0.09375)"/>
    </g>
   </g>
  </g>
  <g id="axes_4">
   <g id="patch_20">
    <path d="M 214.856406 314.800313 
L 350.28 314.800313 
L 350.28 167.195973 
L 214.856406 167.195973 
z
" style="fill: #ffffff"/>
   </g>
   <g id="matplotlib.axis_7">
    <g id="xtick_13">
     <g id="line2d_63">
      <path d="M 221.012024 314.800313 
L 221.012024 167.195973 
" clip-path="url(#pe45fcf624c)" style="fill: none; stroke: #cccccc; stroke-opacity: 0.2; stroke-width: 0.8; stroke-linecap: square"/>
     </g>
     <g id="line2d_64"/>
     <g id="text_20">
      <!-- 0 -->
      <g transform="translate(217.830774 325.89875) scale(0.1 -0.1)">
       <use xlink:href="#DejaVuSans-30"/>
      </g>
     </g>
    </g>
    <g id="xtick_14">
     <g id="line2d_65">
      <path d="M 260.199905 314.800313 
L 260.199905 167.195973 
" clip-path="url(#pe45fcf624c)" style="fill: none; stroke: #cccccc; stroke-opacity: 0.2; stroke-width: 0.8; stroke-linecap: square"/>
     </g>
     <g id="line2d_66"/>
     <g id="text_21">
      <!-- 2 -->
      <g transform="translate(257.018655 325.89875) scale(0.1 -0.1)">
       <use xlink:href="#DejaVuSans-32"/>
      </g>
     </g>
    </g>
    <g id="xtick_15">
     <g id="line2d_67">
      <path d="M 299.387785 314.800313 
L 299.387785 167.195973 
" clip-path="url(#pe45fcf624c)" style="fill: none; stroke: #cccccc; stroke-opacity: 0.2; stroke-width: 0.8; stroke-linecap: square"/>
     </g>
     <g id="line2d_68"/>
     <g id="text_22">
      <!-- 4 -->
      <g transform="translate(296.206535 325.89875) scale(0.1 -0.1)">
       <use xlink:href="#DejaVuSans-34"/>
      </g>
     </g>
    </g>
    <g id="xtick_16">
     <g id="line2d_69">
      <path d="M 338.575666 314.800313 
L 338.575666 167.195973 
" clip-path="url(#pe45fcf624c)" style="fill: none; stroke: #cccccc; stroke-opacity: 0.2; stroke-width: 0.8; stroke-linecap: square"/>
     </g>
     <g id="line2d_70"/>
     <g id="text_23">
      <!-- 6 -->
      <g transform="translate(335.394416 325.89875) scale(0.1 -0.1)">
       <use xlink:href="#DejaVuSans-36"/>
      </g>
     </g>
    </g>
   </g>
   <g id="matplotlib.axis_8">
    <g id="ytick_16">
     <g id="line2d_71">
      <path d="M 214.856406 308.091024 
L 350.28 308.091024 
" clip-path="url(#pe45fcf624c)" style="fill: none; stroke: #cccccc; stroke-opacity: 0.2; stroke-width: 0.8; stroke-linecap: square"/>
     </g>
     <g id="line2d_72"/>
    </g>
    <g id="ytick_17">
     <g id="line2d_73">
      <path d="M 214.856406 274.544584 
L 350.28 274.544584 
" clip-path="url(#pe45fcf624c)" style="fill: none; stroke: #cccccc; stroke-opacity: 0.2; stroke-width: 0.8; stroke-linecap: square"/>
     </g>
     <g id="line2d_74"/>
    </g>
    <g id="ytick_18">
     <g id="line2d_75">
      <path d="M 214.856406 240.998143 
L 350.28 240.998143 
" clip-path="url(#pe45fcf624c)" style="fill: none; stroke: #cccccc; stroke-opacity: 0.2; stroke-width: 0.8; stroke-linecap: square"/>
     </g>
     <g id="line2d_76"/>
    </g>
    <g id="ytick_19">
     <g id="line2d_77">
      <path d="M 214.856406 207.451702 
L 350.28 207.451702 
" clip-path="url(#pe45fcf624c)" style="fill: none; stroke: #cccccc; stroke-opacity: 0.2; stroke-width: 0.8; stroke-linecap: square"/>
     </g>
     <g id="line2d_78"/>
    </g>
    <g id="ytick_20">
     <g id="line2d_79">
      <path d="M 214.856406 173.905261 
L 350.28 173.905261 
" clip-path="url(#pe45fcf624c)" style="fill: none; stroke: #cccccc; stroke-opacity: 0.2; stroke-width: 0.8; stroke-linecap: square"/>
     </g>
     <g id="line2d_80"/>
    </g>
   </g>
   <g id="line2d_81">
    <path d="M 221.012024 240.998143 
L 224.955563 214.714905 
L 227.050568 202.213374 
L 228.775867 193.221819 
L 230.254694 186.681681 
L 231.48705 182.169677 
L 232.59617 178.901962 
L 233.582055 176.663671 
L 234.444704 175.238534 
L 235.184117 174.422214 
L 235.800295 174.031371 
L 236.416473 173.905344 
L 237.032651 174.044632 
L 237.648829 174.448684 
L 238.265007 175.115903 
L 239.004421 176.260156 
L 239.86707 178.060402 
L 240.852955 180.713971 
L 241.962075 184.426755 
L 243.194431 189.399154 
L 244.550023 195.807133 
L 246.152085 204.483287 
L 248.123855 216.472332 
L 250.835038 234.467824 
L 256.010933 269.017755 
L 257.982702 280.638901 
L 259.708001 289.509193 
L 261.186828 295.927142 
L 262.419184 300.326552 
L 263.528304 303.486124 
L 264.514189 305.624032 
L 265.376838 306.95888 
L 266.116251 307.696542 
L 266.732429 308.021285 
L 267.348607 308.080989 
L 267.964785 307.875417 
L 268.580963 307.405383 
L 269.320377 306.494942 
L 270.05979 305.211589 
L 270.92244 303.252891 
L 271.908324 300.424784 
L 273.017445 296.526099 
L 274.249801 291.362911 
L 275.728628 284.124616 
L 277.453926 274.453181 
L 279.548931 261.349356 
L 282.876292 238.888596 
L 286.57336 214.327176 
L 288.668365 201.869816 
L 290.393663 192.926501 
L 291.87249 186.435046 
L 293.104846 181.967947 
L 294.213967 178.743394 
L 295.199851 176.545191 
L 296.062501 175.156129 
L 296.801914 174.371249 
L 297.418092 174.006835 
L 298.03427 173.907335 
L 298.650448 174.073141 
L 299.266626 174.503599 
L 299.882804 175.197006 
L 300.622218 176.372254 
L 301.484867 178.20784 
L 302.470751 180.900384 
L 303.579872 184.654742 
L 304.812228 189.669888 
L 306.167819 196.119924 
L 307.769882 204.838017 
L 309.741652 216.865589 
L 312.57607 235.728837 
L 317.505494 268.633784 
L 319.600499 280.978564 
L 321.202562 289.216732 
L 322.681389 295.683749 
L 323.913745 300.128328 
L 325.022865 303.331252 
L 326.00875 305.509378 
L 326.871399 306.880383 
L 327.610813 307.649531 
L 328.226991 308.000725 
L 328.843169 308.08696 
L 329.459346 307.907897 
L 330.075524 307.464243 
L 330.691702 306.757752 
L 331.431116 305.567024 
L 332.293765 303.713795 
L 333.27965 301.001803 
L 334.38877 297.226714 
L 335.621126 292.190269 
L 336.976718 285.7193 
L 338.57878 276.980367 
L 340.55055 264.933709 
L 343.384969 246.057085 
L 344.124382 240.998143 
L 344.124382 240.998143 
" clip-path="url(#pe45fcf624c)" style="fill: none; stroke: #d14895; stroke-width: 2; stroke-linecap: square"/>
   </g>
   <g id="line2d_82">
    <path d="M 221.012024 173.905261 
L 221.628202 174.037919 
L 222.24438 174.435367 
L 222.860558 175.096034 
L 223.599972 176.232532 
L 224.462621 178.023931 
L 225.448506 180.66774 
L 226.557626 184.370108 
L 227.789982 189.331789 
L 229.145573 195.729215 
L 230.747636 204.39483 
L 232.719406 216.374169 
L 235.430589 234.362838 
L 240.606484 268.921865 
L 242.701489 281.232275 
L 244.303551 289.436257 
L 245.782378 295.866497 
L 247.014734 300.277216 
L 248.123855 303.447637 
L 249.109739 305.595608 
L 249.972389 306.9395 
L 250.711802 307.685037 
L 251.32798 308.016394 
L 251.944158 308.082731 
L 252.560336 307.883785 
L 253.176514 307.420344 
L 253.915928 306.517735 
L 254.655341 305.242084 
L 255.51799 303.292149 
L 256.503875 300.47368 
L 257.612995 296.585243 
L 258.845351 291.432546 
L 260.324178 284.205376 
L 262.049477 274.544584 
L 264.144482 261.449855 
L 267.471843 238.994041 
L 271.168911 214.42401 
L 273.263916 201.955561 
L 274.989214 193.000153 
L 276.468041 186.496502 
L 277.700397 182.018161 
L 278.809518 178.782805 
L 279.795402 176.574573 
L 280.658051 175.176486 
L 281.397465 174.383743 
L 282.013643 174.012721 
L 282.629821 173.906588 
L 283.245999 174.065766 
L 283.862177 174.489624 
L 284.478355 175.176486 
L 285.217768 176.343989 
L 286.080418 178.170747 
L 287.066302 180.853557 
L 288.175423 184.597536 
L 289.407779 189.602014 
L 290.76337 196.041559 
L 292.365433 204.7492 
L 294.337202 216.767185 
L 297.171621 235.623675 
L 302.101045 268.53762 
L 304.19605 280.893796 
L 305.798113 289.143318 
L 307.27694 295.622562 
L 308.509296 300.078406 
L 309.618416 303.292149 
L 310.604301 305.480316 
L 311.46695 306.860351 
L 312.206363 307.637366 
L 312.822541 307.99517 
L 313.438719 308.088039 
L 314.054897 307.915603 
L 314.671075 307.478547 
L 315.287253 306.778597 
L 316.026667 305.595608 
L 316.889316 303.751198 
L 317.875201 301.048927 
L 318.984321 297.284199 
L 320.216677 292.258397 
L 321.572268 285.797886 
L 323.174331 277.069362 
L 325.146101 265.032232 
L 327.980519 246.162273 
L 332.786707 214.03707 
L 334.881713 201.613162 
L 336.607011 192.706259 
L 338.085838 186.251485 
L 339.318194 181.818182 
L 340.427314 178.626084 
L 341.413199 176.458004 
L 342.275848 175.096034 
L 343.015262 174.334754 
L 343.63144 173.990172 
L 344.124382 173.905261 
L 344.124382 173.905261 
" clip-path="url(#pe45fcf624c)" style="fill: none; stroke: #efb0d6; stroke-width: 2; stroke-linecap: square"/>
   </g>
   <g id="patch_21">
    <path d="M 214.856406 314.800313 
L 214.856406 167.195973 
" style="fill: none; stroke: #000000; stroke-width: 0.7; stroke-linejoin: miter; stroke-linecap: square"/>
   </g>
   <g id="patch_22">
    <path d="M 350.28 314.800313 
L 350.28 167.195973 
" style="fill: none; stroke: #000000; stroke-width: 0.7; stroke-linejoin: miter; stroke-linecap: square"/>
   </g>
   <g id="patch_23">
    <path d="M 214.856406 314.800313 
L 350.28 314.800313 
" style="fill: none; stroke: #000000; stroke-width: 0.7; stroke-linejoin: miter; stroke-linecap: square"/>
   </g>
   <g id="patch_24">
    <path d="M 214.856406 167.195973 
L 350.28 167.195973 
" style="fill: none; stroke: #000000; stroke-width: 0.7; stroke-linejoin: miter; stroke-linecap: square"/>
   </g>
   <g id="text_24">
    <g id="patch_25">
     <path d="M 300.884988 307.477361 
L 342.164988 307.477361 
Q 345.764988 307.477361 345.764988 303.877361 
L 345.764988 292.263611 
Q 345.764988 288.663611 342.164988 288.663611 
L 300.884988 288.663611 
Q 297.284988 288.663611 297.284988 292.263611 
L 297.284988 303.877361 
Q 297.284988 307.477361 300.884988 307.477361 
z
" style="fill: #ffffff; opacity: 0.8; stroke: #000000; stroke-width: 0.4; stroke-linejoin: miter"/>
    </g>
    <!-- $a = 2.0$ -->
    <g transform="translate(300.884988 301.381736) scale(0.12 -0.12)">
     <use xlink:href="#DejaVuSans-Oblique-61" transform="translate(0 0.78125)"/>
     <use xlink:href="#DejaVuSans-3d" transform="translate(80.761719 0.78125)"/>
     <use xlink:href="#DejaVuSans-32" transform="translate(184.033203 0.78125)"/>
     <use xlink:href="#DejaVuSans-2e" transform="translate(247.65625 0.78125)"/>
     <use xlink:href="#DejaVuSans-30" transform="translate(279.443359 0.78125)"/>
    </g>
   </g>
  </g>
  <g id="text_25">
   <!-- $f(x)$ -->
   <g transform="translate(7.2 183.587187) scale(0.13 -0.13)">
    <defs>
     <path id="DejaVuSans-Oblique-66" d="M 3059 4863 
L 2969 4384 
L 2419 4384 
Q 2106 4384 1964 4261 
Q 1822 4138 1753 3809 
L 1691 3500 
L 2638 3500 
L 2553 3053 
L 1606 3053 
L 1013 0 
L 434 0 
L 1031 3053 
L 481 3053 
L 563 3500 
L 1113 3500 
L 1159 3744 
Q 1278 4363 1576 4613 
Q 1875 4863 2516 4863 
L 3059 4863 
z
" transform="scale(0.015625)"/>
    </defs>
    <use xlink:href="#DejaVuSans-Oblique-66" transform="translate(0 0.015625)"/>
    <use xlink:href="#DejaVuSans-28" transform="translate(35.205078 0.015625)"/>
    <use xlink:href="#DejaVuSans-Oblique-78" transform="translate(74.21875 0.015625)"/>
    <use xlink:href="#DejaVuSans-29" transform="translate(133.398438 0.015625)"/>
   </g>
  </g>
  <g id="text_26">
   <!-- $x$ -->
   <g transform="translate(176.1 353.696406) scale(0.13 -0.13)">
    <use xlink:href="#DejaVuSans-Oblique-78" transform="translate(0 0.3125)"/>
   </g>
  </g>
 </g>
 <defs>
  <clipPath id="pe525e09464">
   <rect x="69.712812" y="9.72" width="135.423594" height="147.604339"/>
  </clipPath>
  <clipPath id="p266922bc8a">
   <rect x="214.856406" y="9.72" width="135.423594" height="147.604339"/>
  </clipPath>
  <clipPath id="pcf9ea6926d">
   <rect x="69.712812" y="167.195973" width="135.423594" height="147.604339"/>
  </clipPath>
  <clipPath id="pe45fcf624c">
   <rect x="214.856406" y="167.195973" width="135.423594" height="147.604339"/>
  </clipPath>
 </defs>
</svg>
